<?xml version="1.0" encoding="UTF-8" standalone="no"?>
<svg
   xmlns:dc="http://purl.org/dc/elements/1.1/"
   xmlns:cc="http://creativecommons.org/ns#"
   xmlns:rdf="http://www.w3.org/1999/02/22-rdf-syntax-ns#"
   xmlns:svg="http://www.w3.org/2000/svg"
   xmlns="http://www.w3.org/2000/svg"
   viewBox="0 0 395.98666 230.45332"
   height="230.45332"
   width="395.98666"
   xml:space="preserve"
   id="svg2"
   version="1.1"><metadata
     id="metadata8"><rdf:RDF><cc:Work
         rdf:about=""><dc:format>image/svg+xml</dc:format><dc:type
           rdf:resource="http://purl.org/dc/dcmitype/StillImage" /></cc:Work></rdf:RDF></metadata><defs
     id="defs6" /><g
     transform="matrix(1.3333333,0,0,-1.3333333,0,230.45333)"
     id="g10"><g
       transform="scale(0.1)"
       id="g12"><path
         id="path14"
         style="fill:#2d8083;fill-opacity:1;fill-rule:nonzero;stroke:none"
         d="M 1581.68,705.648 704.297,705.59 c -30.32,0 -62.246,22.558 -62.246,57.047 v 237.258 c 0,26.565 28.703,55.815 59.637,55.815 l 934.232,0.04 c 137.27,0 160.9,86.57 160.9,146.76 l 0.06,295.72 c 0,138.29 28.03,230.09 181.43,230.09 l 913.51,0.06 c 38.2,0 78.11,-35.56 78.11,-74.62 v -181.58 c 0,-40.12 -29.55,-81.29 -89.28,-81.29 l -865.27,-0.06 c -146.86,0 -194.3,-69.53 -194.3,-190.73 V 944.895 c -0.04,-141.836 -95.29,-239.247 -239.4,-239.247 v 0" /><path
         id="path16"
         style="fill:#61b232;fill-opacity:1;fill-rule:nonzero;stroke:none"
         d="M 1581.68,0.0585938 704.297,0 c -30.32,0 -62.246,22.5586 -62.246,57.0508 V 294.301 c 0,26.64 28.703,55.82 59.637,55.82 l 934.232,0.098 c 137.27,0 160.9,86.543 160.9,146.703 l 24.28,2.137 -0.02,-259.7 C 1821.04,97.4414 1725.79,0.0585938 1581.68,0.0585938 v 0" /><path
         id="path18"
         style="fill:#f78d11;fill-opacity:1;fill-rule:nonzero;stroke:none"
         d="m 1403.87,1728.38 c 38.2,0 78.12,-35.56 78.12,-74.62 l -0.02,-181.58 c 0,-40.12 -29.56,-81.29 -89.27,-81.29 L 78.1445,1390.83 C 39.9297,1390.83 0,1426.39 0,1465.44 l 0.0390625,181.59 c 0,40.1 29.5507375,81.29 89.2773375,81.29 l 1314.5536,0.06 v 0" /></g></g></svg>